<?xml version="1.0" encoding="UTF-8"?>
<svg id="Calque_1" data-name="Calque 1" xmlns="http://www.w3.org/2000/svg" viewBox="0 0 381.8 775.84">
  <defs>
    <style>
      .cls-1 {
        font-size: 199.95px;
      }

      .cls-1, .cls-2, .cls-3, .cls-4 {
        fill: #fff;
      }

      .cls-1, .cls-3, .cls-4 {
        font-family: RumbleBrave, 'Rumble Brave';
      }

      .cls-5 {
        stroke-width: 8px;
      }

      .cls-5, .cls-6 {
        fill: none;
        stroke: #fff;
        stroke-miterlimit: 10;
      }

      .cls-3 {
        font-size: 207.22px;
      }

      .cls-6 {
        stroke-width: 18px;
      }

      .cls-4 {
        font-size: 202.55px;
      }
    </style>
  </defs>
  <path class="cls-2" d="M153.87,260.94l.42,433.86-96.53.84s-6.97-16.69,22.81-17.53c0,0,15.21,4.44,15.42-21.55l.99-354.23s-1.83-18.24-18.24-22.67c0,0-34.57-1.27-35.98-7.96,0,0-3.38-3.8-2.75-10.77h113.85Z"/>
  <path class="cls-2" d="M208.91,267.19l.21,32.63s57.33,33.46,55.08,107.25c0,0,3.77,78.58-55.29,110.96v100.54l62.11,109.83s14.22,30.7,46.05,43.58c0,0,58.66,16.13,64.57-17.67,0,0,3.38-25.91-21.4-25.91,0,0-15.49-.28-20.56,15.77,0,0-16.53-20.38-23.09-32.67l-41.12-81.11s-21.77-40.54-42.61-60.25c-2.7-2.56-5.69-4.79-8.87-6.72-5.2-3.16-14.25-8.62-14.67-8.54l.04-1.37s55.66-6.41,89.88-61.96c0,0,32.53-54.07,17.11-111.53,0,0-10.98-60.41-56.4-88.72,0,0-25.59-19.96-51.03-24.13Z"/>
  <circle class="cls-2" cx="358.79" cy="685.02" r="20.08"/>
  <text class="cls-4" transform="translate(39.98 237.47) rotate(-13.43)"><tspan x="0" y="0">Y</tspan></text>
  <text class="cls-3" transform="translate(116.05 221.01) rotate(3.53)"><tspan x="0" y="0">A</tspan></text>
  <text class="cls-1" transform="translate(228.02 230.1) rotate(19.82)"><tspan x="0" y="0">N</tspan></text>
  <path class="cls-2" d="M180.94,91.23s-37.72-9.81,9.93-91.23c0,0,28.61,80.45-9.93,91.23Z"/>
  <path class="cls-2" d="M177.68,89.52s-14.33-14.97,31.23-41.46c0,0-10.5,46.69-31.23,41.46Z"/>
  <path class="cls-2" d="M184.16,89.6s-19.57,6.83-24.76-45.62c0,0,38.12,28.92,24.76,45.62Z"/>
  <path class="cls-2" d="M337.34,134.45s-22.36-14.5,26.11-57.05c0,0,1.22,58.37-26.11,57.05Z"/>
  <path class="cls-2" d="M344.63,127.76s-8.25-11.52,25.15-25.04c0,0-11.62,30.58-25.15,25.04Z"/>
  <path class="cls-2" d="M335.37,124.77s-13.83-3.07,2.04-35.43c0,0,11.74,30.54-2.04,35.43Z"/>
  <path class="cls-2" d="M35.69,110.74s-25.02,9.16-29.9-55.16c0,0,47.38,34.11,29.9,55.16Z"/>
  <path class="cls-2" d="M31.72,105.69s-13.67-3.74,3.74-35.29c0,0,10.26,31.07-3.74,35.29Z"/>
  <path class="cls-2" d="M29.76,103.4s-10.34,9.69-28.11-21.66c0,0,31.84,7.52,28.11,21.66Z"/>
  <path class="cls-6" d="M30.06,117.03s147.86-58.83,310.92,36.37"/>
  <path class="cls-5" d="M88.5,228.01s74.34-28.64,197,26.33"/>
</svg>