<?xml version="1.0" encoding="UTF-8"?>
<svg id="Calque_1" xmlns="http://www.w3.org/2000/svg" version="1.1" viewBox="0 0 265 538.6">
  <!-- Generator: Adobe Illustrator 29.0.1, SVG Export Plug-In . SVG Version: 2.1.0 Build 192)  -->
  <defs>
    <style>
      .st0 {
        font-size: 126.6px;
      }

      .st0, .st1, .st2, .st3 {
        isolation: isolate;
      }

      .st0, .st1, .st3 {
        font-family: RumbleBrave, 'Rumble Brave';
      }

      .st0, .st1, .st3, .st4 {
        fill: #e0f2fb;
      }

      .st1 {
        font-size: 131.1px;
      }

      .st5 {
        stroke-width: 14px;
      }

      .st5, .st6 {
        fill: none;
        stroke: #e0f2fb;
        stroke-miterlimit: 10;
      }

      .st3 {
        font-size: 128.3px;
      }

      .st6 {
        stroke-width: 6px;
      }
    </style>
  </defs>
  <path class="st4" d="M108,191v274.5c.2,0-60.8.6-60.8.6,0,0-4.5-10.6,14.5-11,0,0,9.6,2.9,9.8-13.7l.6-224.2s-1.2-11.5-11.5-14.3c0,0-21.9-.8-22.7-5.1,0,0-2-2.5-1.8-6.8h72-.2Z"/>
  <path class="st4" d="M143,195.1v20.7s36.4,21.3,35,67.9c0,0,2.5,49.7-35,70.2v63.6l39.3,69.5s9,19.4,29,27.6c0,0,37,10.2,40.9-11.3,0,0,2-16.4-13.5-16.4,0,0-9.8,0-13.1,10,0,0-10.4-12.9-14.5-20.7l-26-51.3s-13.7-25.6-27-38c-1.6-1.6-3.7-3.1-5.5-4.3-3.3-2-9-5.5-9.2-5.3v-.8s35.2-4.1,56.9-39.3c0,0,20.7-34.2,10.8-70.6,0,0-7-38.3-35.6-56,0,0-16.2-12.7-32.3-15.3h0l-.2-.2Z"/>
  <circle class="st4" cx="237.7" cy="459.3" r="12.7"/>
  <g class="st2">
    <g class="st2">
      <text class="st3" transform="translate(36 176.2) rotate(-13.4)"><tspan x="0" y="0">Y</tspan></text>
    </g>
  </g>
  <g class="st2">
    <g class="st2">
      <text class="st1" transform="translate(84.1 165.8) rotate(3.5)"><tspan x="0" y="0">A</tspan></text>
    </g>
  </g>
  <g class="st2">
    <g class="st2">
      <text class="st0" transform="translate(155.1 171.5) rotate(19.8)"><tspan x="0" y="0">N</tspan></text>
    </g>
  </g>
  <path class="st4" d="M125.2,83.6s-23.9-6.1,6.3-57.7c0,0,18.2,50.9-6.3,57.7Z"/>
  <path class="st4" d="M123.2,82.6s-9-9.4,19.8-26.2c0,0-6.5,29.5-19.8,26.2Z"/>
  <path class="st4" d="M127.2,82.6s-12.5,4.3-15.8-28.8c0,0,24.1,18.2,15.8,28.8Z"/>
  <path class="st4" d="M224.2,111s-14.1-9.2,16.6-36.2c0,0,.8,37-16.6,36.2Z"/>
  <path class="st4" d="M228.7,106.7s-5.3-7.4,16-15.8c0,0-7.4,19.4-16,15.8h0Z"/>
  <path class="st4" d="M223,104.9s-8.8-1.8,1.2-22.5c0,0,7.4,19.2-1.2,22.5Z"/>
  <path class="st4" d="M33.4,96.1s-15.8,5.7-19-35c0,0,30.1,21.7,19,35Z"/>
  <path class="st4" d="M30.7,92.8s-8.6-2.5,2.5-22.3c0,0,6.5,19.6-2.5,22.3Z"/>
  <path class="st4" d="M29.5,91.4s-6.5,6.1-17.8-13.7c0,0,20,4.7,17.8,13.7Z"/>
  <path class="st5" d="M29.7,99.9s93.5-37.2,196.8,22.9"/>
  <path class="st6" d="M66.7,170.3s47-18.2,124.6,16.6"/>
</svg>