<?xml version="1.0" encoding="UTF-8"?>
<svg id="Calque_1" data-name="Calque 1" xmlns="http://www.w3.org/2000/svg" viewBox="0 0 265.05 538.58">
  <defs>
    <style>
      .cls-1 {
        font-size: 140.61px;
      }

      .cls-1, .cls-2, .cls-3 {
        font-family: RumbleBrave, 'Rumble Brave';
      }

      .cls-1, .cls-2, .cls-3, .cls-4 {
        fill: #f6c943;
      }

      .cls-2 {
        font-size: 138.8px;
      }

      .cls-5 {
        stroke-width: 18px;
      }

      .cls-5, .cls-6 {
        fill: none;
        stroke: #f6c943;
        stroke-miterlimit: 10;
      }

      .cls-6 {
        stroke-width: 8px;
      }

      .cls-3 {
        font-size: 143.85px;
      }
    </style>
  </defs>
  <path class="cls-4" d="M106.82,181.14l.29,301.18-67.01.59s-4.84-11.58,15.84-12.17c0,0,10.56,3.08,10.7-14.96l.68-245.9s-1.27-12.66-12.66-15.74c0,0-24-.88-24.98-5.52,0,0-2.35-2.64-1.91-7.48h79.03Z"/>
  <path class="cls-4" d="M145.03,185.48l.15,22.65s39.8,23.23,38.23,74.45c0,0,2.61,54.55-38.38,77.03v69.8l43.12,76.24s9.87,21.31,31.97,30.25c0,0,40.72,11.2,44.83-12.26,0,0,2.35-17.99-14.86-17.99,0,0-10.75-.2-14.27,10.95,0,0-11.47-14.15-16.03-22.68l-28.54-56.31s-15.11-28.14-29.58-41.82c-1.88-1.77-3.95-3.32-6.15-4.67-3.61-2.2-9.89-5.98-10.19-5.93l.02-.95s38.64-4.45,62.39-43.01c0,0,22.58-37.54,11.88-77.42,0,0-7.62-41.94-39.15-61.58,0,0-17.77-13.86-35.42-16.75Z"/>
  <circle class="cls-4" cx="249.07" cy="475.53" r="13.94"/>
  <text class="cls-1" transform="translate(27.75 164.84) rotate(-13.43)"><tspan x="0" y="0">Y</tspan></text>
  <text class="cls-3" transform="translate(80.55 153.41) rotate(3.53)"><tspan x="0" y="0">A</tspan></text>
  <text class="cls-2" transform="translate(158.28 159.72) rotate(19.82)"><tspan x="0" y="0">N</tspan></text>
  <path class="cls-4" d="M125.62,63.33s-26.19-6.81,6.89-63.33c0,0,19.86,55.85-6.89,63.33Z"/>
  <path class="cls-4" d="M123.35,62.14s-9.95-10.39,21.68-28.78c0,0-7.29,32.41-21.68,28.78Z"/>
  <path class="cls-4" d="M127.85,62.2s-13.58,4.74-17.19-31.67c0,0,26.46,20.08,17.19,31.67Z"/>
  <path class="cls-4" d="M234.19,93.33s-15.52-10.06,18.13-39.61c0,0,.84,40.52-18.13,39.61Z"/>
  <path class="cls-4" d="M239.24,88.69s-5.73-7.99,17.46-17.38c0,0-8.07,21.23-17.46,17.38Z"/>
  <path class="cls-4" d="M232.82,86.61s-9.6-2.13,1.41-24.6c0,0,8.15,21.2-1.41,24.6Z"/>
  <path class="cls-4" d="M24.78,76.88s-17.37,6.36-20.76-38.29c0,0,32.89,23.68,20.76,38.29Z"/>
  <path class="cls-4" d="M22.03,73.37s-9.49-2.59,2.59-24.5c0,0,7.12,21.57-2.59,24.5Z"/>
  <path class="cls-4" d="M20.67,71.78s-7.18,6.73-19.52-15.04c0,0,22.1,5.22,19.52,15.04Z"/>
  <path class="cls-5" d="M20.88,81.24s102.64-40.84,215.84,25.24"/>
  <path class="cls-6" d="M61.45,158.28s51.6-19.88,136.75,18.28"/>
</svg>